<?xml version="1.0" encoding="UTF-8" standalone="no"?>
<svg
   xmlns:dc="http://purl.org/dc/elements/1.1/"
   xmlns:cc="http://creativecommons.org/ns#"
   xmlns:rdf="http://www.w3.org/1999/02/22-rdf-syntax-ns#"
   xmlns:svg="http://www.w3.org/2000/svg"
   xmlns="http://www.w3.org/2000/svg"
   xmlns:sodipodi="http://sodipodi.sourceforge.net/DTD/sodipodi-0.dtd"
   xmlns:inkscape="http://www.inkscape.org/namespaces/inkscape"
   version="1.1"
   id="Layer_1"
   x="0px"
   y="0px"
   width="744.09448"
   height="1052.3622"
   viewBox="0 0 744.09448 1052.3622"
   enable-background="new 0 0 100 100"
   xml:space="preserve"
   inkscape:version="0.48.5 r10040"
   sodipodi:docname="Serilog-metrics.svg"><metadata
   id="metadata31"><rdf:RDF><cc:Work
       rdf:about=""><dc:format>image/svg+xml</dc:format><dc:type
         rdf:resource="http://purl.org/dc/dcmitype/StillImage" /><dc:title></dc:title></cc:Work></rdf:RDF></metadata><defs
   id="defs29" /><sodipodi:namedview
   pagecolor="#ffffff"
   bordercolor="#666666"
   borderopacity="1"
   objecttolerance="10"
   gridtolerance="10"
   guidetolerance="10"
   inkscape:pageopacity="0"
   inkscape:pageshadow="2"
   inkscape:window-width="1920"
   inkscape:window-height="1140"
   id="namedview27"
   showgrid="false"
   inkscape:zoom="2.18"
   inkscape:cx="164.62152"
   inkscape:cy="169.16072"
   inkscape:window-x="-8"
   inkscape:window-y="-8"
   inkscape:window-maximized="1"
   inkscape:current-layer="Layer_1" />
<rect
   style="fill:#4d4d4d;fill-opacity:1;stroke:none"
   id="rect3010"
   width="100.52941"
   height="100.52941"
   x="285.03775"
   y="853.46899"
   ry="0"
   inkscape:export-filename="C:\Users\nblumhardt\Desktop\serilog-metrics-128.png"
   inkscape:export-xdpi="111.01229"
   inkscape:export-ydpi="111.01229" />


<path
   d="m 362.0121,867.78303 c -26.21498,25.52097 -42.44443,40.17182 -44.8828,42.75328 -2.43562,2.57856 -3.34681,5.67817 -2.03462,6.91761 1.31508,1.24218 4.35556,0.15384 6.79118,-2.42472 2.43841,-2.58005 17.58167,-20.61737 40.12624,-47.24617 z m -45.03939,47.90546 c -0.63102,-0.59604 0.0645,-2.35181 1.54636,-3.92061 1.48458,-1.5717 3.19723,-2.36399 3.82751,-1.76865 0.62737,0.5926 -0.0668,2.34691 -1.55137,3.91862 -1.48184,1.5688 -3.19514,2.36323 -3.8225,1.77064 z"
   id="path3"
   inkscape:connector-curvature="0"
   style="stroke:none;stroke-width:10;stroke-linejoin:round;stroke-miterlimit:4;stroke-opacity:1;stroke-dasharray:none" /><path
   style="fill:none;fill-opacity:1;stroke:none"
   d="m 352.50728,870.15409 86.99808,-84.46932 -76.09871,88.87815 z"
   id="path3804"
   inkscape:connector-curvature="0"
   sodipodi:nodetypes="cccc" /><g
   id="g5"
   transform="matrix(0.72696901,0.68667028,-0.68667028,0.72696901,347.54314,853.93868)"
   style="stroke:none;stroke-width:10;stroke-linejoin:round;stroke-miterlimit:4;stroke-opacity:1;stroke-dasharray:none;fill:#999999">
	<path
   d="m 28.409,83.23 c -0.605,0 -2.667,-0.168 -4.76,-2.105 -3.259,-3.02 -4.914,-8.717 -4.914,-16.933 0,-0.726 0.586,-1.312 1.312,-1.312 0.726,0 1.312,0.587 1.312,1.312 0,9.182 2.17,13.187 3.99,14.93 1.598,1.527 3.082,1.484 3.15,1.481 2.43,-0.004 4.385,-0.84 6.059,-2.559 6.132,-6.294 5.795,-21.761 5.79,-21.916 -0.019,-0.725 0.554,-1.328 1.277,-1.348 0.739,-0.017 1.327,0.554 1.347,1.277 0.021,0.678 0.372,16.724 -6.531,23.815 -2.162,2.224 -4.809,3.351 -7.862,3.351 -0.021,0.005 -0.079,0.007 -0.17,0.007 z"
   id="path7"
   inkscape:connector-curvature="0"
   style="fill:#999999;stroke:none;stroke-width:10;stroke-linejoin:round;stroke-miterlimit:4;stroke-opacity:1;stroke-dasharray:none" />
</g><g
   id="g9"
   transform="matrix(0.72696901,0.68667028,-0.68667028,0.72696901,347.54314,853.93868)"
   style="stroke:none;stroke-width:10;stroke-linejoin:round;stroke-miterlimit:4;stroke-opacity:1;stroke-dasharray:none;fill:#ffffff">
	<polygon
   points="40.018,40.39 40.018,50.48 78.706,41.387 78.706,40.39 "
   id="polygon11"
   style="stroke:none;stroke-width:10;stroke-linejoin:round;stroke-miterlimit:4;stroke-opacity:1;stroke-dasharray:none;fill:#ffffff" />
	<polygon
   points="78.706,74.652 40.018,83.746 40.018,88.141 48.933,88.141 78.706,81.142 "
   id="polygon13"
   style="stroke:none;stroke-width:10;stroke-linejoin:round;stroke-miterlimit:4;stroke-opacity:1;stroke-dasharray:none;fill:#ffffff" />
	<polygon
   points="40.018,69.857 78.706,60.764 78.706,54.273 40.018,63.366 "
   id="polygon15"
   style="stroke:none;stroke-width:10;stroke-linejoin:round;stroke-miterlimit:4;stroke-opacity:1;stroke-dasharray:none;fill:#ffffff" />
	<polygon
   points="40.018,54.179 40.018,60.671 78.706,51.577 78.706,45.085 "
   id="polygon17"
   style="stroke:none;stroke-width:10;stroke-linejoin:round;stroke-miterlimit:4;stroke-opacity:1;stroke-dasharray:none;fill:#ffffff" />
	<polygon
   points="78.706,70.954 78.706,64.462 40.018,73.556 40.018,80.048 "
   id="polygon19"
   style="stroke:none;stroke-width:10;stroke-linejoin:round;stroke-miterlimit:4;stroke-opacity:1;stroke-dasharray:none;fill:#ffffff" />
	<polygon
   points="78.706,83.839 60.41,88.141 78.706,88.141 "
   id="polygon21"
   style="stroke:none;stroke-width:10;stroke-linejoin:round;stroke-miterlimit:4;stroke-opacity:1;stroke-dasharray:none;fill:#ffffff" />
	<rect
   x="34.751999"
   y="29.222"
   width="49.222"
   height="8.9499998"
   id="rect23"
   style="fill:#ffffff;stroke:none;stroke-width:10;stroke-linejoin:round;stroke-miterlimit:4;stroke-opacity:1;stroke-dasharray:none" />
	<rect
   x="34.751999"
   y="89.946999"
   width="49.222"
   height="8.948"
   id="rect25"
   style="fill:#ffffff;stroke:none;stroke-width:10;stroke-linejoin:round;stroke-miterlimit:4;stroke-opacity:1;stroke-dasharray:none" />
</g><path
   inkscape:connector-curvature="0"
   id="path3780"
   d="m 361.90085,867.90864 c -26.21499,25.52096 -42.44444,40.17182 -44.8828,42.75328 -2.43563,2.57856 -3.34682,5.67817 -2.03463,6.9176 1.31508,1.24219 4.35556,0.15384 6.79118,-2.42472 2.43841,-2.58005 17.58168,-20.61736 40.12625,-47.24616 z m -45.0394,47.90546 c -0.63102,-0.59604 0.0645,-2.35181 1.54637,-3.92061 1.48457,-1.5717 3.19723,-2.364 3.82751,-1.76866 0.62737,0.5926 -0.0668,2.34692 -1.55138,3.91863 -1.48183,1.5688 -3.19513,2.36323 -3.8225,1.77064 z"
   style="fill:#e6e6e6" /><g
   transform="matrix(0.72696901,0.68667028,-0.68667028,0.72696901,347.43188,854.06429)"
   id="g3782"
   style="fill:#f2f2f2">
	<path
   style="fill:#f2f2f2"
   inkscape:connector-curvature="0"
   id="path3784"
   d="m 28.409,83.23 c -0.605,0 -2.667,-0.168 -4.76,-2.105 -3.259,-3.02 -4.914,-8.717 -4.914,-16.933 0,-0.726 0.586,-1.312 1.312,-1.312 0.726,0 1.312,0.587 1.312,1.312 0,9.182 2.17,13.187 3.99,14.93 1.598,1.527 3.082,1.484 3.15,1.481 2.43,-0.004 4.385,-0.84 6.059,-2.559 6.132,-6.294 5.795,-21.761 5.79,-21.916 -0.019,-0.725 0.554,-1.328 1.277,-1.348 0.739,-0.017 1.327,0.554 1.347,1.277 0.021,0.678 0.372,16.724 -6.531,23.815 -2.162,2.224 -4.809,3.351 -7.862,3.351 -0.021,0.005 -0.079,0.007 -0.17,0.007 z" />
</g><g
   transform="matrix(0.72696901,0.68667028,-0.68667028,0.72696901,347.43188,854.06429)"
   id="g3786"
   style="fill:#f2f2f2">
	<polygon
   id="polygon3788"
   points="40.018,50.48 78.706,41.387 78.706,40.39 40.018,40.39 "
   style="fill:#f2f2f2" />
	<polygon
   id="polygon3790"
   points="40.018,88.141 48.933,88.141 78.706,81.142 78.706,74.652 40.018,83.746 "
   style="fill:#f2f2f2" />
	<polygon
   id="polygon3792"
   points="78.706,60.764 78.706,54.273 40.018,63.366 40.018,69.857 "
   style="fill:#f2f2f2" />
	<polygon
   id="polygon3794"
   points="40.018,60.671 78.706,51.577 78.706,45.085 40.018,54.179 "
   style="fill:#f2f2f2" />
	<polygon
   id="polygon3796"
   points="78.706,64.462 40.018,73.556 40.018,80.048 78.706,70.954 "
   style="fill:#f2f2f2" />
	<polygon
   id="polygon3798"
   points="78.706,88.141 78.706,83.839 60.41,88.141 "
   style="fill:#f2f2f2" />
	<rect
   style="fill:#f2f2f2"
   id="rect3800"
   height="8.9499998"
   width="49.222"
   y="29.222"
   x="34.751999" />
	<rect
   style="fill:#f2f2f2"
   id="rect3802"
   height="8.948"
   width="49.222"
   y="89.946999"
   x="34.751999" />
</g><rect
   style="fill:#ffffff;fill-opacity:1;stroke:none"
   id="rect3806"
   width="323.07693"
   height="93.589745"
   x="186.53847"
   y="955.85181" /><rect
   style="fill:none;fill-opacity:1;stroke:none"
   id="rect3835"
   width="20.928988"
   height="1.8836573"
   x="-477.75555"
   y="857.7702"
   transform="matrix(0.6600738,-0.75120076,0.75201936,0.65914102,0,0)" /><rect
   transform="matrix(0.67122583,-0.74125292,0.74208537,0.67030538,0,0)"
   y="911.33472"
   x="-467.29672"
   height="1.8836573"
   width="20.928988"
   id="rect3837"
   style="fill:none;fill-opacity:1;stroke:none" />

<rect
   style="fill:#ffd42a;fill-opacity:1;stroke:none"
   id="rect3014"
   width="9.1463423"
   height="7.9268293"
   x="281.07785"
   y="849.92316" /><rect
   y="869.46783"
   x="277.09756"
   height="3.6585364"
   width="12.195123"
   id="rect3790"
   style="fill:#ffd42a;fill-opacity:1;stroke:none" /><rect
   style="fill:#ffd42a;fill-opacity:1;stroke:none"
   id="rect3792"
   width="12.195123"
   height="3.6585364"
   x="277.09756"
   y="861.74426" /><rect
   style="fill:#ffd42a;fill-opacity:1;stroke:none"
   id="rect3794"
   width="12.195123"
   height="3.6585364"
   x="277.09756"
   y="877.19141" /><rect
   style="fill:#ffd42a;fill-opacity:1;stroke:none"
   id="rect3796"
   width="12.195123"
   height="3.6585364"
   x="277.09756"
   y="900.36218" /><rect
   y="892.63861"
   x="277.09756"
   height="3.6585364"
   width="12.195123"
   id="rect3798"
   style="fill:#ffd42a;fill-opacity:1;stroke:none" /><rect
   y="908.08575"
   x="277.09756"
   height="3.6585364"
   width="12.195123"
   id="rect3801"
   style="fill:#ffd42a;fill-opacity:1;stroke:none" /><rect
   y="931.25653"
   x="277.09756"
   height="3.6585364"
   width="12.195123"
   id="rect3803"
   style="fill:#ffd42a;fill-opacity:1;stroke:none" /><rect
   style="fill:#ffd42a;fill-opacity:1;stroke:none"
   id="rect3805"
   width="12.195123"
   height="3.6585364"
   x="277.09756"
   y="923.53296" /><rect
   style="fill:#ffd42a;fill-opacity:1;stroke:none"
   id="rect3807"
   width="12.195123"
   height="3.6585364"
   x="277.09756"
   y="938.9801" /><rect
   style="fill:#ffd42a;fill-opacity:1;stroke:none"
   id="rect3817"
   width="12.195123"
   height="3.6585364"
   x="845.65485"
   y="-366.28067"
   transform="matrix(0,1,-1,0,0,0)" /><rect
   y="-373.90897"
   x="845.65485"
   height="3.6585364"
   width="12.195123"
   id="rect3819"
   style="fill:#ffd42a;fill-opacity:1;stroke:none"
   transform="matrix(0,1,-1,0,0,0)" /><rect
   y="-358.65234"
   x="845.65485"
   height="3.6585364"
   width="12.195123"
   id="rect3821"
   style="fill:#ffd42a;fill-opacity:1;stroke:none"
   transform="matrix(0,1,-1,0,0,0)" /><rect
   y="-335.76746"
   x="845.65485"
   height="3.6585364"
   width="12.195123"
   id="rect3823"
   style="fill:#ffd42a;fill-opacity:1;stroke:none"
   transform="matrix(0,1,-1,0,0,0)" /><rect
   style="fill:#ffd42a;fill-opacity:1;stroke:none"
   id="rect3825"
   width="12.195123"
   height="3.6585364"
   x="845.65485"
   y="-343.39575"
   transform="matrix(0,1,-1,0,0,0)" /><rect
   style="fill:#ffd42a;fill-opacity:1;stroke:none"
   id="rect3827"
   width="12.195123"
   height="3.6585364"
   x="845.65485"
   y="-328.13916"
   transform="matrix(0,1,-1,0,0,0)" /><rect
   style="fill:#ffd42a;fill-opacity:1;stroke:none"
   id="rect3829"
   width="12.195123"
   height="3.6585364"
   x="845.65485"
   y="-305.25424"
   transform="matrix(0,1,-1,0,0,0)" /><rect
   y="-312.88254"
   x="845.65485"
   height="3.6585364"
   width="12.195123"
   id="rect3831"
   style="fill:#ffd42a;fill-opacity:1;stroke:none"
   transform="matrix(0,1,-1,0,0,0)" /><rect
   y="-297.62595"
   x="845.65485"
   height="3.6585364"
   width="12.195123"
   id="rect3833"
   style="fill:#ffd42a;fill-opacity:1;stroke:none"
   transform="matrix(0,1,-1,0,0,0)" /><text
   xml:space="preserve"
   style="font-size:10px;font-style:normal;font-weight:normal;line-height:125%;letter-spacing:0px;word-spacing:0px;fill:#ffcc00;fill-opacity:1;stroke:none;font-family:Sans"
   x="292.30768"
   y="868.17413"
   id="text3863"
   sodipodi:linespacing="125%"><tspan
     sodipodi:role="line"
     id="tspan3865"
     x="292.30768"
     y="868.17413" /></text>

<text
   sodipodi:linespacing="125%"
   id="text3867"
   y="868.17413"
   x="308.547"
   style="font-size:10px;font-style:normal;font-weight:bold;line-height:125%;letter-spacing:0px;word-spacing:0px;fill:#ffd42a;fill-opacity:1;stroke:none;font-family:Sans;-inkscape-font-specification:Sans Bold"
   xml:space="preserve"><tspan
     y="868.17413"
     x="308.547"
     id="tspan3869"
     sodipodi:role="line">1</tspan></text>

<text
   xml:space="preserve"
   style="font-size:10px;font-style:normal;font-weight:normal;line-height:125%;letter-spacing:0px;word-spacing:0px;fill:#ffd42a;fill-opacity:1;stroke:none;font-family:Sans"
   x="339.31622"
   y="868.17413"
   id="text3871"
   sodipodi:linespacing="125%"><tspan
     sodipodi:role="line"
     id="tspan3873"
     x="339.31622"
     y="868.17413"
     style="font-weight:bold;-inkscape-font-specification:Sans Bold">2</tspan></text>

<text
   sodipodi:linespacing="125%"
   id="text3875"
   y="868.17413"
   x="369.23074"
   style="font-size:10px;font-style:normal;font-weight:normal;line-height:125%;letter-spacing:0px;word-spacing:0px;fill:#ffd42a;fill-opacity:1;stroke:none;font-family:Sans"
   xml:space="preserve"><tspan
     y="868.17413"
     x="369.23074"
     id="tspan3877"
     sodipodi:role="line"
     style="font-weight:bold;-inkscape-font-specification:Sans Bold">3</tspan></text>

<text
   xml:space="preserve"
   style="font-size:10px;font-style:normal;font-weight:normal;line-height:125%;letter-spacing:0px;word-spacing:0px;fill:#ffd42a;fill-opacity:1;stroke:none;font-family:Sans"
   x="297.90955"
   y="882.00317"
   id="text3879"
   sodipodi:linespacing="125%"><tspan
     sodipodi:role="line"
     id="tspan3881"
     x="297.90955"
     y="882.00317"
     style="font-weight:bold;-inkscape-font-specification:Sans Bold">1</tspan></text>

<text
   sodipodi:linespacing="125%"
   id="text3883"
   y="913.62714"
   x="297.6532"
   style="font-size:10px;font-style:normal;font-weight:normal;line-height:125%;letter-spacing:0px;word-spacing:0px;fill:#ffd42a;fill-opacity:1;stroke:none;font-family:Sans"
   xml:space="preserve"><tspan
     y="913.62714"
     x="297.6532"
     id="tspan3885"
     sodipodi:role="line"
     style="font-weight:bold;-inkscape-font-specification:Sans Bold">2</tspan></text>

<text
   xml:space="preserve"
   style="font-size:10px;font-style:normal;font-weight:normal;line-height:125%;letter-spacing:0px;word-spacing:0px;fill:#ffd42a;fill-opacity:1;stroke:none;font-family:Sans"
   x="297.5531"
   y="943.54163"
   id="text3887"
   sodipodi:linespacing="125%"><tspan
     sodipodi:role="line"
     id="tspan3889"
     x="297.5531"
     y="943.54163"
     style="font-weight:bold;-inkscape-font-specification:Sans Bold">3</tspan></text>

<rect
   y="885.19141"
   x="276.24286"
   height="3.6585364"
   width="22.878883"
   id="rect3891"
   style="fill:#ffd42a;fill-opacity:1;stroke:none" /><rect
   style="fill:#ffd42a;fill-opacity:1;stroke:none"
   id="rect3893"
   width="22.878883"
   height="3.6585364"
   x="276.24286"
   y="915.53326" /><rect
   y="946.16577"
   x="276.24286"
   height="3.6585364"
   width="22.878883"
   id="rect3895"
   style="fill:#ffd42a;fill-opacity:1;stroke:none" /><rect
   style="fill:#ffd42a;fill-opacity:1;stroke:none"
   id="rect3897"
   width="22.878883"
   height="3.6585364"
   x="843.24792"
   y="-381.53726"
   transform="matrix(0,1,-1,0,0,0)" /><rect
   y="-351.02405"
   x="843.24792"
   height="3.6585364"
   width="22.878883"
   id="rect3899"
   style="fill:#ffd42a;fill-opacity:1;stroke:none"
   transform="matrix(0,1,-1,0,0,0)" /><rect
   style="fill:#ffd42a;fill-opacity:1;stroke:none"
   id="rect3901"
   width="22.878883"
   height="3.6585364"
   x="843.24792"
   y="-320.51086"
   transform="matrix(0,1,-1,0,0,0)" /></svg>